<svg width="982" height="512" viewBox="0 0 982 512" fill="none" xmlns="http://www.w3.org/2000/svg">
<path fill-rule="evenodd" clip-rule="evenodd" d="M256 32C256 14.2998 241.7 0 224 0C206.3 0 192 14.2998 192 32V48H176C158.3 48 144 62.2998 144 80C144 97.7002 158.3 112 176 112H192V160H40C17.8999 160 0 177.9 0 200C0 205.3 1 210.5 3.1001 215.4L80 400H368L444.9 215.4C447 210.5 448 205.3 448 200C448 177.9 430.1 160 408 160H256V112H272C289.7 112 304 97.7002 304 80C304 62.2998 289.7 48 272 48H256V32ZM80 432L38.6001 473.4C34.3999 477.6 32 483.4 32 489.4C32 501.9 42.1001 512 54.6001 512H393.4C405.9 512 416 501.9 416 489.4C416 483.4 413.6 477.6 409.4 473.4L368 432H80ZM766.217 16.4019C755.715 5.8999 741.471 0 726.619 0C711.767 0 697.523 5.8999 687.021 16.4019C676.519 26.9043 670.619 41.1479 670.619 56C670.619 70.8521 676.519 85.0957 687.021 95.5981C697.523 106.1 711.767 112 726.619 112C741.471 112 755.715 106.1 766.217 95.5981C776.719 85.0957 782.619 70.8521 782.619 56C782.619 41.1479 776.719 26.9043 766.217 16.4019ZM634.919 120C619.719 120 608.019 130.8 604.719 143.8C597.719 171.6 572.519 192.1 542.619 192.1C531.819 192.1 521.719 189.4 512.819 184.7C504.419 180.3 493.919 180.3 485.219 185.6C472.219 193.6 468.119 210.6 476.019 223.6L582.919 400H598.619H639.019H814.219H854.619H870.319L977.219 223.6C985.119 210.6 981.019 193.6 968.019 185.6C959.319 180.2 948.819 180.3 940.419 184.7C931.619 189.4 921.419 192.1 910.619 192.1C880.719 192.1 855.519 171.6 848.519 143.8C845.319 130.8 833.619 120 818.319 120C806.019 120 795.719 127.2 790.619 137C778.619 160.2 754.419 176 726.619 176C698.819 176 674.619 160.2 662.619 137C657.519 127.2 647.219 120 634.919 120ZM912.019 473.4L870.619 432H582.619L541.219 473.4C537.019 477.6 534.619 483.4 534.619 489.4C534.619 501.9 544.719 512 557.219 512H896.019C908.519 512 918.619 501.9 918.619 489.4C918.619 483.4 916.219 477.6 912.019 473.4Z" fill="currentColor"/>
</svg>
