<svg width="10" height="9" viewBox="0 0 10 9" fill="none" xmlns="http://www.w3.org/2000/svg">
<path d="M0.570076 8.76929C0.359139 8.56422 0.364998 8.21265 0.570076 8.00758L4.06812 4.50367L0.570076 1.00562C0.364998 0.800545 0.364998 0.454842 0.570076 0.243904C0.775154 0.0329667 1.12672 0.0388261 1.32594 0.243904L4.82984 3.74781L8.33375 0.243904C8.53883 0.0388261 8.87867 0.0388261 9.08961 0.243904C9.30054 0.448982 9.30054 0.800545 9.09547 1.00562L5.59156 4.50367L9.09547 8.00758C9.30054 8.21265 9.29469 8.55836 9.08961 8.76929C8.88453 8.98023 8.53883 8.97437 8.33375 8.76929L4.82984 5.26539L1.32594 8.76929C1.12672 8.97437 0.781014 8.97437 0.570076 8.76929Z" fill="currentColor"/>
</svg>
