<svg width="12" height="11" viewBox="0 0 12 11" fill="none" xmlns="http://www.w3.org/2000/svg">
<path d="M3.30078 5.16284C1.84766 5.16284 0.675781 4.13745 0.675781 2.60815C0.675781 1.08472 1.84766 0.0534668 3.30078 0.0534668H8.66211C10.1152 0.0534668 11.2871 1.08472 11.2871 2.60815C11.2871 4.13745 10.1152 5.16284 8.66211 5.16284H3.30078ZM3.30078 4.27222H8.66211C9.58203 4.27222 10.3965 3.59839 10.3965 2.60815C10.3965 1.61792 9.58203 0.944092 8.66211 0.944092H3.30078C2.38086 0.944092 1.56641 1.61792 1.56641 2.60815C1.56641 3.59839 2.38086 4.27222 3.30078 4.27222ZM3.30078 3.89722C2.58008 3.89722 2.01172 3.323 2.01172 2.60229C2.01172 1.88745 2.58594 1.31323 3.30078 1.31323C4.02148 1.31323 4.60156 1.88745 4.60156 2.59644C4.5957 3.31714 4.02148 3.90308 3.30078 3.89722ZM3.07227 10.6238C1.74219 10.6238 0.675781 9.69214 0.675781 8.32104C0.675781 6.94995 1.74219 6.01245 3.07227 6.01245H8.89062C10.2207 6.01245 11.2871 6.94995 11.2871 8.32104C11.2871 9.69214 10.2207 10.6238 8.89062 10.6238H3.07227ZM9.03125 9.73315C9.81641 9.73901 10.4492 9.09448 10.4551 8.30933C10.4609 7.53003 9.82227 6.90308 9.03125 6.90308C8.24609 6.90308 7.61914 7.53589 7.61914 8.31519C7.61914 9.10034 8.24609 9.72729 9.03125 9.73315Z" fill="currentColor"/>
</svg>
