<svg width="122" height="122" viewBox="0 0 122 122" fill="none" xmlns="http://www.w3.org/2000/svg">
<path d="M61.125 121.875C28 121.875 0.5625 94.4375 0.5625 61.3125C0.5625 28.1875 28 0.75 61.0625 0.75C94.1875 0.75 121.688 28.1875 121.688 61.3125C121.688 94.4375 94.25 121.875 61.125 121.875ZM61.125 111.188C88.8125 111.188 111 89 111 61.3125C111 33.625 88.75 11.4375 61.0625 11.4375C33.4375 11.4375 11.375 33.625 11.375 61.3125C11.375 89 33.5 111.188 61.125 111.188ZM61.125 31.125C63.875 31.125 65.8125 33.0625 65.8125 35.8125V64.8125L65.375 77.25L71.1875 70.25L78 63.1875C78.8125 62.3125 79.9375 61.875 81.3125 61.875C83.8125 61.875 85.8125 63.75 85.8125 66.25C85.8125 67.5625 85.3125 68.625 84.5 69.5L64.875 89.1875C63.6875 90.375 62.5625 90.9375 61.125 90.9375C59.75 90.9375 58.75 90.4375 57.5 89.1875L37.8125 69.5C37 68.625 36.5625 67.5625 36.5625 66.25C36.5625 63.75 38.5 61.875 41 61.875C42.375 61.875 43.5 62.375 44.3125 63.1875L51.1875 70.25L56.9375 77.1875L56.4375 64.8125V35.8125C56.4375 33.0625 58.4375 31.125 61.125 31.125Z" fill="currentColor"/>
</svg>
