<svg width="110" height="110" viewBox="0 0 110 110" fill="none" xmlns="http://www.w3.org/2000/svg">
<path d="M18.9375 109.562C6.4375 109.562 0.0625 103.312 0.0625 90.9375V18.8125C0.0625 6.5 6.4375 0.25 18.9375 0.25H90.625C103.125 0.25 109.438 6.5 109.438 18.8125V90.9375C109.438 103.312 103.125 109.562 90.625 109.562H18.9375ZM19.25 99.375H90.25C96 99.375 99.25 96.3125 99.25 90.3125V19.5C99.25 13.5 96 10.4375 90.25 10.4375H19.25C13.5 10.4375 10.3125 13.5 10.3125 19.5V90.3125C10.3125 96.3125 13.5 99.375 19.25 99.375ZM27.4375 54.8125C27.4375 51.75 29.5625 49.5625 32.6875 49.5625H49.625V32.625C49.625 29.5 51.75 27.375 54.75 27.375C57.8125 27.375 59.9375 29.5 59.9375 32.625V49.5625H77C80.0625 49.5625 82.1875 51.75 82.1875 54.8125C82.1875 57.8125 80.0625 59.875 77 59.875H59.9375V76.9375C59.9375 80 57.8125 82.125 54.75 82.125C51.75 82.125 49.625 80 49.625 76.9375V59.875H32.6875C29.5625 59.875 27.4375 57.8125 27.4375 54.8125Z" fill="currentColor"/>
</svg>
