<svg width="106" height="135" viewBox="0 0 106 135" fill="none" xmlns="http://www.w3.org/2000/svg">
<path d="M52.875 87.75C50.125 87.75 47.875 85.5 47.875 82.875V22.5625L48.3125 13.6875L44.375 17.9375L35.625 27.25C34.8125 28.25 33.4375 28.75 32.25 28.75C29.6875 28.75 27.8125 26.9375 27.8125 24.4375C27.8125 23.0625 28.3125 22.125 29.25 21.1875L49.1875 1.9375C50.4375 0.6875 51.5625 0.25 52.875 0.25C54.125 0.25 55.25 0.6875 56.5 1.9375L76.4375 21.1875C77.375 22.125 77.875 23.0625 77.875 24.4375C77.875 26.9375 75.9375 28.75 73.375 28.75C72.1875 28.75 70.9375 28.25 70.0625 27.25L61.3125 17.9375L57.4375 13.6875L57.8125 22.5625V82.875C57.8125 85.5 55.5625 87.75 52.875 87.75ZM18.9375 134.312C6.4375 134.312 0.0625 128.062 0.0625 115.688V57C0.0625 44.625 6.4375 38.375 18.9375 38.375H36.5V48.5625H19.25C13.5 48.5625 10.3125 51.625 10.3125 57.625V115C10.3125 121 13.5 124.062 19.25 124.062H86.4375C92.1875 124.062 95.4375 121 95.4375 115V57.625C95.4375 51.625 92.1875 48.5625 86.4375 48.5625H69.25V38.375H86.8125C99.3125 38.375 105.625 44.625 105.625 57V115.688C105.625 128 99.3125 134.312 86.8125 134.312H18.9375Z" fill="currentColor"/>
</svg>
