<svg width="642" height="515" viewBox="0 0 642 515" fill="none" xmlns="http://www.w3.org/2000/svg"><path fill-rule="evenodd" clip-rule="evenodd" d="M41.3313 6.28623C30.4705 -2.23904 14.7551 -0.345733 6.22974 10.515C-2.29516 21.3758 -0.402096 37.0913 10.4587 45.6165L533.589 456.252L545 465.24V465.21L600.945 509.124C611.806 517.65 627.521 515.756 636.047 504.895C644.572 494.035 642.678 478.319 631.818 469.794L545 401.645V194H280.469L239.703 162H545V114C545 87.5 523.5 66 497 66H449V34C449 16.3 434.7 1.99997 417 1.99997C399.3 1.99997 385 16.3 385 34V66H257V34C257 16.3 242.7 1.99997 225 1.99997C207.3 1.99997 193 16.3 193 34V66H145C137.362 66 130.139 67.7861 123.727 70.9632L41.3313 6.28623ZM96.9998 194H103.647L508.252 512.673C504.643 513.54 500.875 514 497 514H145C118.5 514 96.9998 492.5 96.9998 466V194Z" fill="currentColor"/></svg>