<svg width="448" height="576" viewBox="0 0 448 576" fill="none" xmlns="http://www.w3.org/2000/svg"><path fill-rule="evenodd" clip-rule="evenodd" d="M384 96C384 78.3398 369.66 64 352 64H186.533C178.176 64 170.023 67.3652 163.961 73.4275L73.4275 163.961C67.3652 170.023 64 178.176 64 186.533V480C64 497.66 78.3398 512 96 512H352C369.66 512 384 497.66 384 480V96ZM352 0C405.006 0 448 42.9937 448 96V480C448 533.006 405.006 576 352 576H96C42.9937 576 0 533.006 0 480V186.533C0 161.024 10.2349 136.644 28.1726 118.706L118.706 28.1726C136.644 10.2349 161.024 0 186.533 0H352ZM219 115C219 104.507 210.493 96 200 96C189.507 96 181 104.507 181 115V181H115C104.506 181 96 189.507 96 200C96 210.493 104.506 219 115 219H181C201.987 219 219 201.987 219 181V115Z" fill="currentColor"/></svg>