<svg width="641" height="554" viewBox="0 0 641 554" fill="none" xmlns="http://www.w3.org/2000/svg"><path fill-rule="evenodd" clip-rule="evenodd" d="M5.3357 9.56467C13.8611 -1.29605 29.5764 -3.18936 40.4373 5.33591L94.5654 47.8244C99.7734 44.1539 106.131 42 113 42C130.7 42 145 56.3 145 74V87.4133L147.501 89.3766L214 72.8C252.1 63.3 292.3 67.6999 327.5 85.3C373.8 108.5 428.3 108.5 474.6 85.3L484.2 80.5C504.8 70.0999 529 85.0999 529 108.1V387.8C529 388.143 528.995 388.484 528.984 388.825L630.924 468.844C641.784 477.369 643.678 493.084 635.153 503.945C626.627 514.806 610.912 516.699 600.051 508.174L9.5647 44.6662C-1.29614 36.141 -3.18921 20.4255 5.3357 9.56467ZM465 338.6V293.9L457.1 295.7C443.78 298.813 430.198 300.406 416.581 300.593L465 338.6ZM401 288.363V236C414.9 237.4 429 236.5 442.7 233.4L465 228.2V157.4C444.1 163.5 422.6 166.5 401 166.5V236C393.2 235.2 385.4 233.7 377.8 231.5L337 219.5V157.5C324 153.7 311.2 148.7 298.8 142.5C290.6 138.4 281.9 135.5 273 133.7V187.888L300.416 209.409C304.777 210.299 309.11 211.365 313.4 212.6L337 219.5V238.125L401 288.363ZM81 376V164.289L145 214.526L159.542 225.941L224.922 277.262L209 280.7L145 294.6V360L193.8 347.8C198.9 346.5 203.9 345.4 209 344.5V280.7L224.922 277.262L273 315.001L316.779 349.366L433.156 440.717C398.687 445.009 363.373 439.15 331.8 423.4C293.9 404.4 250.5 399.7 209.3 410L145 426V522C145 539.7 130.7 554 113 554C95.3 554 81 539.7 81 522V442V376Z" fill="currentColor"/></svg>