<svg width="124" height="28" viewBox="0 0 124 28" fill="none" xmlns="http://www.w3.org/2000/svg"><path fill-rule="evenodd" clip-rule="evenodd" d="M14 2.8999L5.5 8.7999V6.1999L14 0.399902V2.8999ZM52.6001 23.7999L56.6001 12.2999L60.5002 23.7999H61.4002L56.6001 9.8999L51.7002 23.7999H52.6001ZM123.5 17.0002C123.5 20.7002 120.3 23.8002 116.6 23.8002C112.9 23.8002 109.7 20.7002 109.7 17.0002C109.7 13.3002 112.8 10.2002 116.6 10.2002C120.3 10.2002 123.5 13.3002 123.5 17.0002ZM110.6 17.0002C110.6 20.3002 113.3 23.0002 116.6 23.0002C119.9 23.0002 122.6 20.2002 122.6 17.0002C122.6 13.7002 119.9 11.0002 116.6 11.0002C113.3 11.0002 110.6 13.8002 110.6 17.0002ZM29.0002 16.6999V11.1999H34.2002V10.3999H28.2002V23.6999H29.0002V17.4999H34.0002V16.6999H29.0002ZM41.7 17.3999L46 23.6999H47L42.7 17.4999C44.9 17.4999 46.5 16.2999 46.5 13.9999C46.5 12.7999 46.2 11.7999 45.2 11.0999C44.3 10.3999 43.3 10.3999 42.2 10.3999H40.5V23.6999H41.3V17.3999H41.7ZM44.6 15.9999C44 16.5999 43.1 16.5999 42.3 16.5999H41.2V11.1999H41.7C42.5 11.1999 43.4 11.1999 44.1 11.4999C45 11.8999 45.5 12.8999 45.5 13.8999C45.5 14.6999 45.2 15.4999 44.6 15.9999ZM69.4996 23.6999H68.6996V11.1999H64.5996V10.3999H73.5996V11.1999H69.4996V23.6999ZM79.0002 16.6999V11.1999H84.5002V10.3999H78.2002V23.6999H84.5002V22.8999H79.0002V17.4999H84.4002V16.6999H79.0002ZM91.6998 22.8999H95.6998V23.6999H90.7998V10.3999H91.5998V22.8999H91.6998ZM105.9 22.8999H101.9H101.8V10.3999H101V23.6999H105.9V22.8999ZM5.5 17.7002L5.7002 17.5613V17.7001L14.1002 23.5001V20.9001L7.47775 16.3275L14 11.8002V9.30029L5.5 15.1002V17.7002ZM0.900391 9.8999H3.00039V27.2999H0.900391V9.8999Z" fill="currentColor"/></svg>