<svg width="121" height="26" viewBox="0 0 121 26" fill="none" xmlns="http://www.w3.org/2000/svg"><g clip-path="url(#clip0_405_15)"><path d="M4.14051 12.9855C0.406603 17.5076 9.84485 25.9706 11.419 19.8722C12.4017 15.7381 7.87834 9.43928 3.74942 13.1808" fill="#C82E2E"/><path fill-rule="evenodd" clip-rule="evenodd" d="M19.9354 1.62619C20.1319 -0.536568 18.1666 -0.339954 17.1841 1.03635L16.791 0.839736C17.1607 1.29196 17.6664 1.61276 18.2329 1.75445C18.7994 1.89614 19.3964 1.85116 19.9354 1.62619ZM11.4928 3.43758C12.9851 2.70618 14.5317 2.0711 16.0954 1.43604C14.4267 1.7291 12.7922 2.19135 11.217 2.81562C9.6214 3.43502 8.11253 4.25824 6.7279 5.26479C6.38332 5.52236 6.0453 5.7904 5.72365 6.07877C5.40202 6.36715 5.09021 6.66732 4.79675 6.98583C4.20466 7.62116 3.69091 8.32526 3.2665 9.08308C2.84454 9.83968 2.53265 10.6528 2.34023 11.4975C2.24602 11.9156 2.18362 12.3402 2.15353 12.7676C2.13912 12.9807 2.12864 13.193 2.13126 13.4054C2.13388 13.6177 2.14043 13.8294 2.15943 14.0398C2.19087 13.8307 2.22232 13.6236 2.26162 13.4171C2.30093 13.2107 2.34284 13.0069 2.39262 12.8043C2.48949 12.4021 2.60891 12.0057 2.7503 11.6168C3.03049 10.8489 3.39986 10.1167 3.85082 9.43497C4.77132 8.08805 5.92016 6.91249 7.24541 5.96146C8.58121 4.99215 10.003 4.14732 11.4928 3.43758ZM1.84132 19.5372C1.88538 19.3019 1.92971 19.0653 1.96268 18.8252C1.45211 19.7292 1.04933 20.69 0.762585 21.6879C0.693802 21.939 0.632887 22.2011 0.588341 22.4633C0.540477 22.7311 0.511791 23.0021 0.50252 23.274C0.491755 23.5615 0.515509 23.8493 0.573269 24.1312C0.605929 24.2831 0.653784 24.4313 0.716085 24.5736C0.732463 24.6103 0.749485 24.647 0.768483 24.683L0.79731 24.7375L0.824818 24.786C0.865014 24.855 0.908751 24.9219 0.95584 24.9865C1.14274 25.2391 1.37952 25.4505 1.65152 25.6078C1.91131 25.7537 2.19222 25.8582 2.48413 25.9178C2.75917 25.9739 3.03929 26.0014 3.32 25.9997C3.45757 25.9997 3.59381 25.9958 3.7281 25.9847C3.86239 25.9735 3.99733 25.9584 4.12834 25.9401C4.64917 25.8622 5.16137 25.7347 5.65795 25.5593C5.9036 25.4702 6.14401 25.3777 6.38245 25.2736C6.6209 25.1693 6.85279 25.0566 7.07945 24.9301C6.85276 24.9607 6.62913 24.9944 6.40631 25.028L6.4061 25.028L6.40548 25.0281L6.31564 25.0416C6.06278 25.0795 5.81122 25.1143 5.56033 25.1451C5.06692 25.2108 4.5703 25.2498 4.07267 25.2618C3.60076 25.2784 3.12883 25.2299 2.67016 25.1176C2.46265 25.0648 2.26401 24.9817 2.08061 24.8711C1.91123 24.7706 1.76393 24.6369 1.6476 24.4779C1.61877 24.4399 1.58994 24.3953 1.56767 24.3586L1.54474 24.3193L1.52837 24.2898C1.52179 24.2754 1.51521 24.2616 1.5088 24.2481L1.49758 24.2243C1.45701 24.133 1.42477 24.0382 1.40128 23.9411C1.34996 23.7239 1.32229 23.5017 1.31874 23.2786C1.31349 22.7935 1.34855 22.3088 1.42355 21.8295C1.49561 21.3367 1.58929 20.8412 1.68558 20.3418L1.83167 19.5887L1.84132 19.5372ZM7.28711 9.74573C7.48887 9.54862 7.70813 9.37027 7.94219 9.21289C8.17861 9.05543 8.42623 8.91544 8.6831 8.79413C9.20123 8.55282 9.74642 8.37464 10.307 8.26324C11.4353 8.04436 12.5927 8.02041 13.729 8.19247C14.2995 8.27494 14.8624 8.40275 15.4126 8.57451C15.9671 8.74538 16.5054 8.96467 17.0214 9.22996C17.5442 9.49832 18.0366 9.82227 18.4901 10.1959C18.9522 10.5773 19.3578 11.0224 19.6948 11.5179C19.8627 11.7703 20.0087 12.0367 20.131 12.3141C20.5055 13.157 20.6249 14.0912 20.4743 15.0012C20.3761 15.5917 20.1883 16.1637 19.9175 16.6974C19.7864 16.9599 19.6398 17.2144 19.4786 17.4596C19.3179 17.7021 19.1452 17.9363 18.9611 18.1615C18.2271 19.0454 17.3521 19.8018 16.3716 20.4003C15.8889 20.6985 15.3821 20.9556 14.8564 21.1691C14.5944 21.2739 14.3278 21.3657 14.0579 21.4489C13.7883 21.5281 13.5143 21.5909 13.2371 21.637C14.2791 21.2619 15.256 20.7261 16.1325 20.049C17.0047 19.3968 17.7771 18.6207 18.4253 17.7454C18.5831 17.5284 18.7305 17.3043 18.8648 17.0749C18.9999 16.8474 19.1219 16.6123 19.2303 16.371C19.4459 15.8984 19.592 15.3971 19.664 14.8826C19.7681 14.1276 19.6585 13.3586 19.3476 12.6628C19.2432 12.4301 19.1191 12.2067 18.9768 11.995C18.6871 11.5652 18.3387 11.1781 17.9418 10.8448C17.5388 10.5025 17.1017 10.2023 16.6376 9.94885C14.7198 8.91999 12.5421 8.47742 10.3751 8.67616C9.83125 8.73108 9.29459 8.84312 8.7741 9.01034C8.51249 9.09541 8.25724 9.19908 8.01031 9.32039C7.75828 9.44259 7.51643 9.58485 7.28711 9.74573ZM12.4818 24.1807C12.5207 24.1892 12.5601 24.1955 12.5997 24.1998L12.5957 23.973L12.5918 23.7659C12.5259 23.6753 12.467 23.5797 12.4156 23.4801C12.308 23.2725 12.2123 23.0589 12.1287 22.8405C12.1073 22.7869 12.086 22.7328 12.0646 22.6783L12.0646 22.6783C11.9968 22.506 11.9274 22.3296 11.8464 22.1523C11.792 22.0326 11.731 21.916 11.6636 21.803C11.5963 21.764 11.526 21.7304 11.4533 21.7028C11.416 21.689 11.3792 21.6765 11.342 21.6661C11.3035 21.6561 11.2646 21.6485 11.2254 21.6431V21.7584V21.8666C11.2234 21.94 11.2215 22.0055 11.2168 22.0711C11.2741 22.1673 11.3259 22.2667 11.3721 22.3686C11.4469 22.5322 11.5149 22.7055 11.5847 22.8831L11.5848 22.8835C11.6041 22.9326 11.6236 22.9821 11.6433 23.0319C11.7341 23.2685 11.8382 23.4998 11.9551 23.7246C12.0106 23.8307 12.0749 23.9329 12.1399 24.0364L12.1399 24.0364L12.14 24.0364L12.1569 24.0634C12.2254 24.098 12.2966 24.127 12.3698 24.1499C12.4071 24.1611 12.4444 24.1709 12.4818 24.1807ZM10.0452 22.8208C10.0656 22.8269 10.0842 22.834 10.1026 22.841L10.1027 22.841C10.1139 22.8453 10.1249 22.8495 10.1363 22.8535L10.2189 22.8856C10.2739 22.9066 10.3237 22.9283 10.3721 22.9512C10.389 23.0033 10.4116 23.0533 10.4344 23.1038C10.4434 23.1238 10.4525 23.1438 10.4612 23.1641C10.5241 23.3003 10.5914 23.4369 10.66 23.576L10.6601 23.5762L10.6683 23.5928L10.7075 23.6722C10.7665 23.7913 10.8263 23.9121 10.8831 24.0365C10.9179 24.1125 10.9519 24.1898 10.984 24.2685C10.9454 24.3835 10.8933 24.4936 10.8287 24.5962C10.7331 24.5629 10.6526 24.5289 10.5731 24.4953C10.5492 24.4852 10.5253 24.4751 10.5012 24.4651C10.4724 24.3943 10.4409 24.3236 10.4088 24.2528C10.3433 24.1112 10.2726 23.9684 10.2005 23.8241C10.1284 23.68 10.0551 23.5319 9.98567 23.3798C9.96832 23.3433 9.9525 23.3061 9.9366 23.2688C9.91943 23.2285 9.90217 23.188 9.88281 23.1478C9.90101 23.0925 9.92294 23.0384 9.94829 22.9859L9.98957 22.904C10.0003 22.8891 10.0094 22.875 10.0184 22.861L10.0185 22.8609C10.027 22.8477 10.0354 22.8345 10.0452 22.8208Z" fill="#2C6C60"/><path fill-rule="evenodd" clip-rule="evenodd" d="M33.316 8.016V10.96H38.772C38.98 10.96 39.076 10.944 39.14 10.912C39.236 10.864 39.268 10.848 39.348 10.848C39.428 10.848 39.508 10.896 39.796 11.152C40.052 11.392 40.116 11.488 40.116 11.584C40.116 11.664 40.068 11.728 39.988 11.792C39.876 11.888 39.78 12.064 39.636 12.432C39.06 14.096 38.42 15.456 37.572 16.608C38.644 17.648 39.988 18.496 41.604 19.248C41.428 19.424 41.268 19.616 41.14 19.872L41.1201 19.912C41.0541 20.0453 41.021 20.112 40.948 20.112C40.9104 20.112 40.8531 20.0825 40.7685 20.039C40.7451 20.0269 40.7197 20.0138 40.692 20C39.204 19.2 37.972 18.32 36.996 17.344C36.052 18.432 34.884 19.328 33.38 20.112C33.268 20.176 33.204 20.208 33.14 20.208C33.076 20.208 33.028 20.144 32.916 19.984C32.772 19.776 32.612 19.6 32.42 19.456C34.052 18.704 35.332 17.76 36.34 16.64C35.188 15.28 34.452 13.712 34.052 11.808H33.316C33.3 13.152 33.22 14.416 32.98 15.584C32.708 16.976 32.164 18.608 31.044 20.016C30.948 20.144 30.884 20.224 30.82 20.224C30.772 20.224 30.708 20.16 30.628 20.032C30.468 19.808 30.292 19.632 30.116 19.52C31.284 18.24 31.748 16.864 32.052 15.312C32.34 13.856 32.356 12.304 32.356 10.56C32.356 8.61846 32.3333 7.63131 32.3261 7.3209V7.32078L32.3261 7.32063C32.3248 7.26284 32.324 7.22857 32.324 7.216C32.324 7.104 32.34 7.088 32.452 7.088C32.4667 7.088 32.4978 7.08909 32.5484 7.09086C32.7726 7.09871 33.3809 7.12 34.66 7.12H38.884C40.1269 7.12 40.7131 7.09948 40.9465 7.0913C41.0046 7.08927 41.0409 7.088 41.06 7.088C41.156 7.088 41.172 7.104 41.172 7.216V7.92C41.172 8.032 41.156 8.048 41.06 8.048C41.0409 8.048 41.0046 8.04673 40.9465 8.0447C40.7131 8.03652 40.1269 8.016 38.884 8.016H33.316ZM36.916 15.92C37.796 14.736 38.404 13.376 38.852 11.808H34.916C35.3 13.456 35.972 14.784 36.916 15.92ZM28.6947 20.1488C28.7024 19.8828 28.724 19.1374 28.724 17.744V13.6C28.724 12.992 28.724 12.112 28.756 11.344C28.308 12.016 27.812 12.672 27.252 13.328L27.2201 13.3654C27.1447 13.4541 27.1024 13.504 27.06 13.504C27.012 13.504 26.98 13.456 26.932 13.36C26.804 13.056 26.66 12.848 26.5 12.688C28.1 10.928 29.124 9.12 29.86 7.088C30.02 6.688 30.1 6.304 30.132 6C30.5 6.112 30.804 6.224 31.092 6.352C31.22 6.4 31.284 6.464 31.284 6.544C31.284 6.64 31.236 6.688 31.14 6.768C31.044 6.848 30.948 6.992 30.804 7.36C30.468 8.192 30.1 8.992 29.684 9.776V17.744C29.684 19.1373 29.7056 19.8827 29.7133 20.1487V20.1488V20.1488C29.715 20.2066 29.716 20.2417 29.716 20.256C29.716 20.368 29.7 20.384 29.588 20.384H28.82C28.708 20.384 28.692 20.368 28.692 20.256C28.692 20.2417 28.693 20.2066 28.6947 20.1488ZM56.915 6.7998C57.027 6.7998 57.043 6.8158 57.043 6.9278V7.6478C57.043 7.7438 57.027 7.7598 56.915 7.7598C56.8957 7.7598 56.8601 7.7585 56.8032 7.75642C56.578 7.7482 56.0197 7.7278 54.819 7.7278H50.387C50.147 8.5278 49.811 9.3758 49.395 10.1598H53.971C55.2562 10.1598 55.8601 10.1392 56.0977 10.131C56.1559 10.129 56.1922 10.1278 56.211 10.1278C56.323 10.1278 56.339 10.1438 56.339 10.2558C56.339 10.2723 56.3381 10.304 56.3365 10.3564C56.329 10.6088 56.307 11.3424 56.307 13.1838V15.9678C56.307 19.0036 56.3306 19.8576 56.3373 20.0992L56.3373 20.0996L56.3374 20.1017C56.3384 20.14 56.339 20.1625 56.339 20.1758C56.339 20.2878 56.323 20.3038 56.211 20.3038H55.459C55.347 20.3038 55.331 20.2878 55.331 20.1758V19.3918H44.819V20.1918C44.819 20.3038 44.803 20.3198 44.691 20.3198H43.955C43.843 20.3198 43.827 20.3038 43.827 20.1918C43.827 20.1782 43.8277 20.1551 43.8288 20.1154V20.1154V20.1153C43.8354 19.8736 43.859 19.0179 43.859 15.9678V13.4718C43.859 11.3706 43.8367 10.6016 43.8293 10.3501C43.8279 10.3009 43.827 10.2715 43.827 10.2558C43.827 10.1438 43.843 10.1278 43.955 10.1278C43.9739 10.1278 44.0102 10.129 44.0684 10.131C44.306 10.1392 44.9099 10.1598 46.195 10.1598H48.371C48.755 9.4398 49.107 8.5278 49.347 7.7278H45.347C44.1249 7.7278 43.5578 7.74893 43.3452 7.75685C43.2962 7.75868 43.266 7.7598 43.251 7.7598C43.139 7.7598 43.123 7.7438 43.123 7.6478V6.9278C43.123 6.8158 43.139 6.7998 43.251 6.7998C43.266 6.7998 43.2962 6.80093 43.3452 6.80276C43.5578 6.81068 44.1249 6.8318 45.347 6.8318H54.819C56.0197 6.8318 56.578 6.81141 56.8032 6.80318C56.8601 6.80111 56.8957 6.7998 56.915 6.7998ZM52.627 18.5278H55.331V11.0078H52.627V18.5278ZM44.819 18.5278H47.507V11.0078H44.819V18.5278ZM48.419 18.5278H51.699V16.4958H48.419V18.5278ZM48.419 15.6958H51.699V13.7278H48.419V15.6958ZM48.419 12.9278H51.699V11.0078H48.419V12.9278ZM67.428 8.64002C67.9504 8.64002 68.3857 8.64919 68.7903 8.65771C69.1417 8.66511 69.4699 8.67202 69.812 8.67202C69.988 8.68802 70.02 8.64002 70.02 8.46402C70.036 8.24002 70.036 7.95202 70.02 7.74402C70.02 7.60002 69.988 7.55202 69.844 7.55202C69.076 7.60002 68.372 7.63202 67.364 7.63202H64.884C63.812 7.63202 63.204 7.61602 62.276 7.52002C62.276 7.80802 62.324 8.24002 62.356 8.48002C62.372 8.65602 62.404 8.72002 62.548 8.70402C63.252 8.65602 63.972 8.64002 64.82 8.64002H67.428ZM69.588 11.968C68.388 15.12 65.956 17.488 62.628 19.088C62.948 19.2 63.284 19.376 63.524 19.584C63.652 19.712 63.764 19.712 63.956 19.616C67.316 17.888 69.316 15.552 70.708 12.4C70.836 12.128 70.916 11.968 71.076 11.856C71.252 11.728 71.268 11.632 71.108 11.424C70.964 11.232 70.724 11.008 70.516 10.848C70.356 10.72 70.276 10.736 70.084 10.832C69.924 10.912 69.7 10.944 69.3 10.944H63.572C62.564 10.944 61.732 10.912 60.916 10.832C60.932 11.216 60.98 11.584 61.028 11.84C61.06 12 61.124 12.064 61.268 12.048C61.924 11.984 62.628 11.968 63.524 11.968H69.588ZM85.4764 8.62391C84.8044 9.43991 84.2284 10.0799 83.4764 10.8319V16.5279C83.4764 17.4879 83.4924 18.3999 83.5244 19.4239C83.5404 19.5679 83.4924 19.6159 83.3644 19.6159C83.0764 19.6319 82.7244 19.6319 82.4364 19.6159C82.3084 19.6159 82.2764 19.5679 82.2764 19.4239C82.3084 18.4639 82.3404 17.5039 82.3404 16.5759V11.8399C80.6604 13.3279 79.0924 14.4159 77.3164 15.4559C77.1724 15.5359 77.0604 15.5039 76.9484 15.3919C76.7404 15.1839 76.4524 15.0239 76.1484 14.8799C78.1324 13.7919 79.7964 12.6399 81.1244 11.5039C82.3404 10.4639 83.4764 9.32791 84.2284 8.41591C84.9004 7.59991 85.1884 7.11991 85.3324 6.60791C85.7644 6.83191 86.1964 7.08791 86.4364 7.32791C86.5964 7.48791 86.5644 7.67991 86.3724 7.77591C86.1804 7.87191 85.8764 8.15991 85.4764 8.62391ZM97.6042 8.94398C97.8602 8.55998 98.0042 8.31998 98.1802 8.01598C98.2922 7.82398 98.4522 7.61598 98.6442 7.47198C98.8202 7.34398 98.8682 7.15198 98.6762 7.02398C98.3402 6.79998 97.9242 6.59198 97.5402 6.47998C97.4122 7.00798 97.2682 7.40798 96.9002 8.06398C95.9402 9.79198 94.5322 11.552 92.3242 13.232C92.6282 13.36 92.8842 13.504 93.0922 13.68C93.2362 13.792 93.3482 13.76 93.5082 13.632C95.0282 12.384 95.8922 11.424 96.9962 9.91998L101.716 9.82398C101.156 11.184 100.276 12.672 99.3802 13.808C98.6122 13.264 97.7162 12.672 96.9962 12.304C96.8682 12.24 96.8202 12.272 96.7402 12.352C96.5322 12.544 96.3562 12.752 96.1802 12.992C97.1242 13.504 98.0202 14.08 98.6922 14.624C97.0762 16.48 95.1082 17.904 92.6762 19.12C93.0122 19.248 93.3162 19.408 93.5722 19.632C93.7162 19.776 93.8282 19.744 94.0042 19.648C96.1482 18.48 97.9082 17.152 99.5562 15.28C100.164 15.792 100.804 16.416 101.348 17.04C101.428 17.136 101.476 17.152 101.604 17.056C101.78 16.928 102.02 16.704 102.132 16.512L102.135 16.507C102.198 16.3976 102.243 16.3186 102.148 16.224C101.524 15.552 100.868 14.976 100.228 14.464C101.188 13.216 102.084 11.712 102.772 10.224C102.9 9.96798 103.012 9.85598 103.156 9.74398C103.316 9.61598 103.348 9.47198 103.22 9.31198C103.028 9.08798 102.74 8.79998 102.532 8.67198C102.372 8.57598 102.244 8.57598 102.1 8.70398C101.972 8.81598 101.796 8.86398 101.252 8.87998L97.6042 8.94398ZM119.925 13.936C118.725 13.904 117.541 13.904 116.469 13.904H110.565C109.462 13.904 108.811 14.0044 108.541 14.0461C108.47 14.0571 108.425 14.064 108.405 14.064C108.261 14.064 108.181 14 108.133 13.84C108.069 13.568 108.005 13.056 107.973 12.624C108.949 12.752 110.181 12.768 111.509 12.768H116.421C117.525 12.768 118.709 12.752 119.925 12.72C120.117 12.704 120.165 12.736 120.165 12.912C120.181 13.152 120.181 13.488 120.165 13.744C120.165 13.92 120.117 13.952 119.925 13.936Z" fill="currentColor"/></g><defs><clipPath id="clip0_405_15"><rect width="120" height="26" fill="white" transform="translate(0.5)"/></clipPath></defs></svg>