<svg width="337" height="441" viewBox="0 0 337 441" fill="none" xmlns="http://www.w3.org/2000/svg"><path fill-rule="evenodd" clip-rule="evenodd" d="M333.55 54.0918C324.787 22.751 303.162 0 282.15 0C280.462 0 278.775 0.146973 277.137 0.437256C276.2 0.601074 275.388 1.14868 274.875 1.94336C274.375 2.74292 274.237 3.71484 274.487 4.6228L278.812 20.0964C279.237 21.5906 280.675 22.6006 282.175 22.5322L282.512 22.5254C290.312 22.5254 304.55 34.2058 311.812 60.1655C311.967 60.7178 312.117 61.2766 312.264 61.8455C312.391 62.3379 312.516 62.8379 312.637 63.3477C304.487 59.3142 294.763 58.3809 285.963 60.8335C266.088 66.3914 254.45 87.0703 260.012 106.931C264.512 123.024 279.312 134.267 296.012 134.267C299.412 134.267 302.8 133.798 306.1 132.874C319.2 129.213 329.05 118.338 333.837 102.258C338.15 87.7515 338.05 70.1963 333.55 54.0918ZM4.05164 232.948C4.05164 204.919 3.71399 180.098 3.0387 158.485C2.36353 136.534 1.35059 114.584 0 92.6333C5.73987 93.3086 11.9862 93.9841 18.739 94.6594C25.4918 94.9973 33.0887 95.166 41.5297 95.166C49.9707 95.166 57.5676 94.9973 64.3204 94.6594C71.0732 93.9841 77.3196 93.3086 83.0594 92.6333C81.7089 114.584 80.6959 136.534 80.0206 158.485C79.3453 180.098 79.0078 204.919 79.0078 232.948V301.839V357.559C79.3455 375.457 79.683 390.991 80.0206 404.162C99.2661 404.162 118.512 403.655 137.757 402.642C157.003 401.629 176.417 399.94 196 397.577C195.325 401.291 194.818 404.668 194.481 407.708C194.143 410.747 193.974 414.968 193.974 420.371C193.974 425.774 194.143 429.996 194.481 433.035C194.818 436.074 195.325 438.607 196 440.633C186.884 440.296 175.573 439.958 162.067 439.62H107.37H57.23H26.8424H9.62268C5.90869 439.958 2.70117 440.296 0 440.633C1.35059 419.696 2.36353 398.421 3.0387 376.808C3.71399 354.857 4.05164 329.868 4.05164 301.839V232.948ZM190.508 0.436523C192.149 0.145996 193.836 0.00244141 195.521 0.00244141C216.54 0.00244141 238.15 22.75 246.925 54.0876C251.425 70.1936 251.537 87.7507 247.213 102.257C242.425 118.337 232.588 129.212 219.484 132.873C216.185 133.797 212.789 134.266 209.387 134.266C192.693 134.266 177.889 123.023 173.388 106.93C167.831 87.0696 179.471 66.3904 199.333 60.8325C208.138 58.3799 217.858 59.3132 226.013 63.3469C225.75 62.2549 225.475 61.2014 225.188 60.1648C217.93 34.2048 203.685 22.5247 195.891 22.5247L195.551 22.5312C194.026 22.5999 192.613 21.5896 192.195 20.0955L187.868 4.62207C187.614 3.71387 187.756 2.74219 188.259 1.94238C188.761 1.14771 189.578 0.596924 190.508 0.436523Z" fill="currentColor"/></svg>